<svg xmlns="http://www.w3.org/2000/svg" xmlns:xlink="http://www.w3.org/1999/xlink" width="192" height="192" viewBox="0 0 192 192">
  <defs>
    <clipPath id="clip-path">
      <rect id="長方形_54456" data-name="長方形 54456" width="70.352" height="109.955" fill="none"/>
    </clipPath>
    <clipPath id="clip-icon">
      <rect width="192" height="192"/>
    </clipPath>
  </defs>
  <g id="icon" clip-path="url(#clip-icon)">
    <rect width="192" height="192" fill="#fff"/>
    <g id="グループ_162001" data-name="グループ 162001" transform="translate(61 41)" clip-path="url(#clip-path)">
      <path id="パス_167611" data-name="パス 167611" d="M46.635,74.19c0-.155,0-.3-.006-.458l-.036-.809c-.012-.131-.012-.262-.024-.393-.018-.3-.042-.607-.071-.916s-.06-.6-.1-.9c-.018-.173-.036-.345-.06-.518-.036-.262-.077-.524-.119-.785l-.054-.375c-.048-.274-.1-.541-.149-.809-.018-.113-.042-.226-.065-.339-.054-.274-.113-.547-.173-.815l-.071-.327c-.065-.274-.137-.541-.2-.809l-.089-.327c-.071-.268-.149-.53-.226-.791-.03-.119-.065-.232-.1-.345-.077-.256-.161-.512-.244-.762l-.125-.369c-.083-.244-.167-.488-.256-.726-.054-.137-.107-.274-.155-.411-.089-.226-.173-.446-.268-.672-.059-.161-.131-.315-.2-.476-.083-.2-.167-.4-.256-.595s-.179-.387-.274-.583c-.071-.155-.143-.315-.22-.476-.137-.274-.274-.541-.411-.809l-.125-.244c-.19-.357-.381-.708-.583-1.059L34.943,44.071,24.93,25.269v.006L18.206,12.65,11.471,0,4.789,12.542v.137L31.576,62.992l.065.125.012.012.018.03c.214.375.4.756.595,1.136L44.213,86.732c.042.077.22.357.339.012l.012-.03.25-.714c.089-.268.173-.541.262-.809.071-.25.149-.494.22-.744.077-.274.149-.547.22-.821.065-.256.131-.506.19-.756.065-.286.125-.571.184-.851.054-.25.107-.5.155-.75.054-.3.1-.613.155-.922.036-.232.077-.464.107-.7.054-.369.089-.75.131-1.125.018-.173.042-.345.06-.518.048-.547.089-1.1.113-1.654V76.32c.024-.476.03-.946.03-1.416l.006-.125c0-.2-.006-.393-.012-.589" transform="translate(23.705 -0.001)"/>
      <path id="パス_167612" data-name="パス 167612" d="M60.737,77.5,54.811,66.37l.012-.018L28.453,16.867,21.735,4.241,11.7,23.079,4.665,36.293c-.2.351-.4.7-.589,1.059l-.119.244c-.143.268-.28.535-.411.809-.077.155-.149.315-.226.476-.089.2-.184.387-.268.583s-.173.4-.256.595c-.071.161-.137.315-.2.476-.089.226-.178.446-.262.672-.054.137-.107.274-.155.411-.089.238-.178.482-.262.726l-.125.363c-.083.256-.161.512-.244.768-.03.113-.065.226-.1.339-.077.268-.155.53-.226.8l-.083.321c-.071.274-.137.541-.2.815l-.071.321q-.1.411-.178.821l-.065.339c-.048.268-.1.535-.143.809-.024.125-.042.25-.059.375-.042.262-.083.518-.113.779-.024.173-.042.351-.059.524-.036.3-.071.607-.1.91s-.054.607-.071.91l-.018.4c-.012.268-.03.535-.036.8-.006.155-.006.3-.006.458-.006.2-.012.393-.012.589v.119c.006.476.012.946.03,1.422l.006.036c.024.553.059,1.107.113,1.654.012.173.036.345.054.518.042.375.083.75.131,1.125.036.232.077.464.113.7.048.309.1.619.155.922.048.25.1.5.149.744.059.286.119.571.184.857.059.25.131.5.19.756.071.274.143.547.22.815.071.25.149.5.226.744.083.274.167.547.262.815.077.238.161.476.244.714.054.143.1.292.155.434l.006-.012a35.165,35.165,0,0,0,8.074,12.519l.143.149a.405.405,0,0,1,.071.071,2.606,2.606,0,0,0,.738.75,2.707,2.707,0,0,1,.5.4c.309.28.631.547.952.815.125.107.25.214.375.315.173.143.351.274.524.411a34.75,34.75,0,0,0,14.173,6.6l.184.042c.434.089.875.167,1.315.244l.411.071c.381.054.762.107,1.142.149.2.03.4.054.607.077.327.036.66.059.994.083.256.018.506.042.762.054.3.018.6.024.9.036.208.006.422.018.631.024h.875c.214-.006.422-.018.637-.024.3-.012.6-.018.9-.036.256-.012.506-.036.756-.054.333-.024.666-.048,1-.083.2-.024.4-.048.607-.077.381-.042.762-.1,1.136-.149l.411-.071c.44-.077.881-.155,1.321-.244l.119-.03c.571-.125,1.136-.256,1.7-.411.149-.036.292-.071.44-.113.5-.143.994-.292,1.487-.452.2-.065.4-.137.595-.2.327-.119.66-.238.988-.363.375-.143.75-.3,1.119-.452.208-.083.411-.173.619-.268a34.872,34.872,0,0,0,7.283-4.355c.178-.137.357-.268.53-.411.125-.1.244-.208.369-.315.327-.268.649-.535.958-.815l.2-.184c.357-.327.714-.66,1.059-1l.042-.042c.054-.048.1-.1.149-.149q.321-.321.625-.66l.208-.232ZM45.362,74.754c-.077.042-.161.077-.238.119-.226.107-.452.2-.678.3-.113.048-.226.1-.345.149-.22.089-.446.178-.666.262l-.381.143c-.214.077-.428.149-.649.22-.143.042-.292.089-.434.137-.2.06-.4.119-.607.173-.167.048-.333.089-.5.131-.19.048-.381.1-.571.137s-.369.077-.553.119-.357.065-.535.1c-.2.036-.4.071-.6.1-.173.024-.345.048-.518.065q-.312.045-.625.071c-.173.018-.345.03-.518.042-.208.018-.417.03-.631.042-.178.006-.357.018-.535.018-.2.006-.4.012-.6.012s-.4-.006-.6-.012-.363-.012-.541-.018c-.208-.012-.416-.024-.631-.042-.173-.012-.339-.024-.512-.042-.208-.018-.422-.042-.631-.071-.173-.018-.345-.042-.518-.065-.2-.03-.4-.065-.595-.1s-.363-.059-.541-.1-.369-.077-.553-.119-.381-.089-.571-.137c-.167-.042-.327-.083-.494-.131-.2-.054-.4-.113-.607-.173-.149-.048-.292-.1-.44-.137-.214-.071-.428-.143-.643-.22l-.381-.143c-.226-.083-.446-.173-.672-.262l-.339-.149c-.226-.1-.452-.2-.678-.3l-.327-.161c-.22-.107-.44-.22-.66-.333l-.351-.2c-.2-.113-.4-.226-.607-.345-.155-.089-.309-.19-.464-.292s-.309-.184-.458-.286A23.18,23.18,0,0,1,18.8,70.369c-.309-.3-.607-.613-.892-.934l-.012-.012a23.355,23.355,0,0,1-2.332-3.046l-.006.006a23.3,23.3,0,0,1-1.547-22.336l.065-.125c.28-.595.577-1.184.9-1.755l.018-.03L15,42.118l.089-.161,6.664-12.507h.006L45.4,73.861c.268.506.125.762-.042.892" transform="translate(0 20.992)"/>
    </g>
  </g>
</svg>
